HIERARCHY
ROOT Hips
{
  OFFSET 0 0 0
  CHANNELS 6 Xposition Yposition Zposition Zrotation Yrotation Xrotation
  JOINT LeftThigh
  {
    OFFSET 8.409438 0 -5.917753
    CHANNELS 3 Zrotation Yrotation Xrotation
    JOINT LeftLeg
    {
      OFFSET 0 0 -42.358652
      CHANNELS 3 Zrotation Yrotation Xrotation
      JOINT LeftFoot
      {
        OFFSET 0 0 -39.357303
        CHANNELS 3 Zrotation Yrotation Xrotation
      }
    }
  }
  JOINT RightThigh
  {
    OFFSET -8.409438 0 -5.917753
    CHANNELS 3 Zrotation Yrotation Xrotation
    JOINT RightLeg
    {
      OFFSET 0 0 -42.358652
      CHANNELS 3 Zrotation Yrotation Xrotation
      JOINT RightFoot
      {
        OFFSET 0 0 -39.357303
        CHANNELS 3 Zrotation Yrotation Xrotation
      }
    }
  }
  JOINT SpineLow
  {
    OFFSET 0 0 4.719101
    CHANNELS 3 Zrotation Yrotation Xrotation
    JOINT SpineMid
    {
      OFFSET 0 0 12.899191
      CHANNELS 3 Zrotation Yrotation Xrotation
      JOINT Chest
      {
        OFFSET 0 0 12.899191
        CHANNELS 3 Zrotation Yrotation Xrotation
        JOINT LeftShoulder
        {
          OFFSET 7.550562 1.41573 9.438202
          CHANNELS 3 Zrotation Yrotation Xrotation
          JOINT LeftArm
          {
            OFFSET 9.155056 0 4.247191
            CHANNELS 3 Zrotation Yrotation Xrotation
            JOINT LeftForearm
            {
              OFFSET 0 0 25.771955
              CHANNELS 3 Zrotation Yrotation Xrotation
              JOINT LeftHand
              {
                OFFSET 0 0 25.197169
                CHANNELS 3 Zrotation Yrotation Xrotation
              }
            }
          }
        }
        JOINT RightShoulder
        {
          OFFSET -7.550562 1.41573 9.438202
          CHANNELS 3 Zrotation Yrotation Xrotation
          JOINT RightArm
          {
            OFFSET -9.155056 0 4.247191
            CHANNELS 3 Zrotation Yrotation Xrotation
            JOINT RightForearm
            {
              OFFSET 0 0 -25.771955
              CHANNELS 3 Zrotation Yrotation Xrotation
              JOINT RightHand
              {
                OFFSET 0 0 -25.197169
                CHANNELS 3 Zrotation Yrotation Xrotation
              }
            }
          }
        }
        JOINT Neck
        {
          OFFSET 0 0 15.101124
          CHANNELS 3 Zrotation Yrotation Xrotation
          JOINT Head
          {
            OFFSET 0 0 11.325843
            CHANNELS 3 Zrotation Yrotation Xrotation
            End Site
            {
              OFFSET 0 0 14.157303
            }
          }
        }
      }
    }
  }
}
MOTION
Frames: 8
Frame Time: 0.0
0.0  101.685394  0.0  1.342626  36.143626  -99.812667  0.371413  -17.537068  3.25148  -23.376271  8.939403  14.616629  0.759468  1.671842  3.88888  -29.321126  17.249516  1.411555  -8.899848  7.505861  17.744944  -0.176861  4.815236  -2.530059  -1.835609  0.493344  2.048786  -4.972316  1.501888  5.559878  -4.972316  1.501888  5.559878  -2.540234  25.713187  1.347952  147.384709  53.955188  -154.81917  -6.051381  -45.494042  107.281766  106.055281  19.372787  -35.999173  23.483684  -6.224889  16.999898  25.60842  65.39507  -24.693426  -59.906345  37.375784  -90.683547  73.56031  13.477845  32.852872  -2.279676  -1.148361  -1.780182  -1.713062  -0.854654  -1.339398  
0.0  101.685394  0.0  1.515953  36.289025  -99.676989  -0.411872  -17.244549  3.322451  -23.434514  8.802365  14.365336  1.233623  1.736804  4.171254  -28.939447  17.28463  1.663684  -9.534805  7.577715  17.392669  -0.237574  4.656969  -2.505737  -1.818882  0.497231  2.046642  -4.926357  1.510941  5.554149  -4.926357  1.510942  5.554149  -2.749492  25.598643  1.295876  148.643039  54.064267  -154.531531  -6.404992  -44.934839  108.556677  106.062918  19.281436  -35.89631  23.426449  -6.33799  17.038664  25.846544  65.171657  -24.743329  -60.040221  37.958179  -90.498894  73.841308  13.611566  32.905882  -2.386983  -0.981321  -1.979786  -1.793395  -0.728281  -1.488663  
0.0  101.685394  0.0  1.617698  36.297278  -99.517822  -1.103039  -17.031854  3.334504  -23.45121  8.723678  14.198181  1.657283  1.794139  4.340283  -28.673018  17.192479  1.772119  -9.901889  7.666041  17.118396  -0.165576  4.550703  -2.456914  -1.82169  0.500041  2.035042  -4.934082  1.517987  5.522184  -4.934082  1.517987  5.522184  -2.747671  25.396868  1.226221  148.832219  54.068392  -154.393682  -6.598803  -44.720111  108.745799  106.073496  19.164418  -35.817044  23.416401  -6.357167  17.043083  26.375404  64.899599  -24.657505  -60.129773  38.296295  -90.343194  74.122281  13.758337  33.002737  -2.156709  -0.920001  -2.083126  -1.620656  -0.682669  -1.565581  
0.0  101.685394  0.0  1.768362  36.370809  -99.310362  -1.844229  -16.811181  3.301426  -23.180382  8.618812  14.255643  2.107863  1.901791  4.50789  -28.400536  17.208992  1.880915  -10.561677  7.691552  16.826112  0.086945  4.484683  -2.410896  -1.810859  0.492645  2.023276  -4.905382  1.496033  5.490832  -4.905382  1.496033  5.490832  -2.828569  25.273058  1.184705  149.094302  54.03751  -154.335738  -6.840598  -44.453175  109.124691  106.047529  19.05118  -35.740183  23.165304  -6.333925  16.993075  27.136749  64.686477  -24.305258  -60.114778  38.527113  -90.201606  74.311412  13.853905  33.119886  -2.174452  -0.809883  -2.222889  -1.633783  -0.599522  -1.670046  
0.0  101.685394  0.0  1.801722  36.234745  -99.235018  -2.40474  -16.7052  3.324214  -22.998233  8.6192  14.213469  2.480171  1.953156  4.626493  -28.347318  17.176259  1.880386  -10.627669  7.705345  16.674663  0.213746  4.414331  -2.362545  -1.792913  0.477192  2.006624  -4.858002  1.451155  5.446869  -4.858003  1.451155  5.44687  -2.681859  25.100372  1.242121  149.238273  53.918181  -154.299274  -6.971038  -44.255079  109.282737  106.010005  18.961606  -35.66951  23.129771  -6.302563  17.081255  27.591844  64.472011  -24.177032  -59.968225  38.531052  -90.113282  74.290498  13.84807  33.139751  -1.987384  -0.746934  -2.232485  -1.493269  -0.552956  -1.676791  
0.0  101.685394  0.0  1.833959  36.126274  -99.164936  -2.867058  -16.682245  3.356154  -22.394851  8.594662  14.439902  2.546691  1.986921  4.606087  -28.296574  17.166653  1.915943  -10.813541  7.685009  16.535376  0.385783  4.386573  -2.350786  -1.761913  0.465125  1.986325  -4.774754  1.414218  5.392979  -4.774754  1.414218  5.392979  -2.616491  24.917096  1.372576  149.616068  53.821289  -154.254056  -7.077643  -44.003842  109.559974  105.976144  18.89364  -35.603636  22.833764  -6.329139  17.103022  28.438754  64.336994  -23.751407  -59.737929  38.385558  -90.037768  74.200356  13.736886  33.055196  -1.973798  -0.697276  -2.236578  -1.482906  -0.515748  -1.679686  
0.0  101.685394  0.0  1.811025  35.911991  -99.150294  -3.201663  -16.674089  3.392223  -21.9779  8.608061  14.472572  2.640911  2.033141  4.677814  -28.546303  17.176843  1.79218  -10.586977  7.666191  16.50135  0.513056  4.36104  -2.3307  -1.722876  0.452205  1.965213  -4.669615  1.374303  5.337072  -4.669616  1.374303  5.337072  -2.375975  24.742729  1.601514  149.676772  53.706451  -154.288002  -7.118351  -43.880755  109.598685  105.945015  18.852874  -35.538479  22.75212  -6.352749  17.221551  28.913189  64.244725  -23.584989  -59.539103  38.186045  -89.978896  73.990733  13.666792  32.85209  -1.847803  -0.703192  -2.169524  -1.388352  -0.520848  -1.629267  
0.0  101.685394  0.0  1.793164  35.66029  -99.144466  -3.379581  -16.720697  3.434537  -21.448687  8.613019  14.576304  2.585938  2.087421  4.689488  -28.796848  17.195725  1.674494  -10.351924  7.633396  16.505247  0.625478  4.344837  -2.350624  -1.653066  0.442057  1.957281  -4.479884  1.340455  5.317612  -4.479884  1.340455  5.317612  -2.314882  24.537098  1.759535  149.679536  53.582714  -154.456197  -7.223217  -43.773187  109.686676  105.876882  18.791364  -35.479467  22.338892  -6.374095  17.173127  29.762724  64.188917  -23.169864  -59.369051  38.002576  -89.950829  73.668066  13.664709  32.559685  -1.894806  -0.751107  -2.154581  -1.423753  -0.556665  -1.61826  
